# xmcd
#
# Track frame offsets: 
#        150
#        24545
#        50090
#
# Disc length: 987 seconds
#
# Revision: 2
# Processed by: cddbd v1.5.2PL0 Copyright (c) Steve Scherf et al.
# Submitted via: ExactAudioCopy v0.99pb5
#
DISCID=2103d903
DTITLE=Char - BLACK SHOES
DYEAR=1989
DGENRE=Rock
TTITLE0=SMOKY
TTITLE1=ICE CREAM
TTITLE2=BLACK SHOES (by BAHO)
EXTD=YEAR: 1989
EXTT0=
EXTT1=
EXTT2=
PLAYORDER=
